<?xml version="1.0" encoding="UTF-8"?>
<svg version="1.1" xmlns="http://www.w3.org/2000/svg" width="200" height="200">
<path d="M0 0 C1.734375 0.06640625 1.734375 0.06640625 4 1 C5.59765336 3.30610184 6.93530589 5.48096971 8.25 7.9375 C8.61351563 8.58396484 8.97703125 9.23042969 9.3515625 9.89648438 C12 14.69055451 12 14.69055451 12 17 C12.66 17 13.32 17 14 17 C14.20625 16.21625 14.4125 15.4325 14.625 14.625 C16.46779775 9.76671502 18.77492079 5.09693076 22 1 C24.1953125 0.20703125 24.1953125 0.20703125 26 0 C26.66 1.32 27.32 2.64 28 4 C28.391875 3.505 28.78375 3.01 29.1875 2.5 C31.55091715 0.54406857 33.01435003 0.75792027 36 1 C36.495 5.455 36.495 5.455 37 10 C38.36125 8.9790625 38.36125 8.9790625 39.75 7.9375 C43 6 43 6 45.203125 6.37890625 C46.09257812 6.68634766 46.09257812 6.68634766 47 7 C47.44398789 14.18742165 47.77956103 21.37181752 47.98443127 28.570261 C48.08294402 31.91727891 48.22610528 35.24774496 48.43334961 38.59082031 C49.73395377 60.1252818 49.73395377 60.1252818 45.20269775 66.54724121 C40.82184851 70.86218335 35.84515777 73.85684565 30.41204834 76.67053223 C27.24983063 78.41347679 24.48306763 80.52543885 21.65663147 82.76168823 C18.07975195 85.43536194 14.41010624 86.24055125 10 86 C6.25424192 84.52439833 3.21034065 82.40510669 0 80 C-0.67804688 79.51789063 -1.35609375 79.03578125 -2.0546875 78.5390625 C-4.07508487 77.07042023 -6.03955134 75.54772262 -8 74 C-8.85078125 73.33484375 -9.7015625 72.6696875 -10.578125 71.984375 C-21.7703714 63.148391 -21.7703714 63.148391 -22.49447632 59.52708435 C-22.49162628 58.6034761 -22.48877625 57.67986786 -22.48583984 56.72827148 C-22.4919931 55.67715683 -22.49814636 54.62604218 -22.50448608 53.54307556 C-22.49011505 52.41382156 -22.47574402 51.28456757 -22.4609375 50.12109375 C-22.46002106 48.95747818 -22.45910461 47.79386261 -22.4581604 46.59498596 C-22.45212044 44.1362805 -22.43636282 41.67758253 -22.41162109 39.21899414 C-22.3751061 35.44845582 -22.37060178 31.67889981 -22.37109375 27.90820312 C-22.36126309 25.52082481 -22.34960632 23.13345317 -22.3359375 20.74609375 C-22.33371185 19.61481552 -22.33148621 18.48353729 -22.32919312 17.31797791 C-22.31643341 16.27001541 -22.30367371 15.22205292 -22.29052734 14.14233398 C-22.28290375 13.21952133 -22.27528015 12.29670868 -22.26742554 11.34593201 C-22 9 -22 9 -20 6 C-16.00544473 6.61454696 -13.25533664 8.70646737 -10 11 C-10.185625 9.72125 -10.37125 8.4425 -10.5625 7.125 C-11.125 3.25 -11.125 3.25 -10 1 C-6.62537285 1.54723683 -4.91765 2.0549 -2 4 C-1.34 2.68 -0.68 1.36 0 0 Z M-5 10 C-5.43923759 12.81815445 -5.43923759 12.81815445 -5 16 C-2.75974798 18.42738017 -2.75974798 18.42738017 0.25 20.3125 C1.22453125 20.98925781 2.1990625 21.66601562 3.203125 22.36328125 C5.58381317 23.75644933 7.31125592 24.55827776 10 25 C5.60831493 19.72997792 1.0573621 14.64697949 -4 10 C-4.33 10 -4.66 10 -5 10 Z M28.60131836 11.28515625 C28.02003174 11.87167969 27.43874512 12.45820312 26.83984375 13.0625 C25.8972168 14.00996094 25.8972168 14.00996094 24.93554688 14.9765625 C23.94651367 15.97816406 23.94651367 15.97816406 22.9375 17 C22.27427734 17.66773438 21.61105469 18.33546875 20.92773438 19.0234375 C19.28291286 20.68009226 17.64046113 22.33902916 16 24 C16.99 24.495 16.99 24.495 18 25 C19.42699459 24.04867027 20.85245201 23.09494364 22.26953125 22.12890625 C23.89940282 21.0656266 25.60531861 20.12161812 27.3125 19.1875 C30.36651293 17.15728781 30.36651293 17.15728781 30.875 13.25 C30.91625 12.1775 30.9575 11.105 31 10 C29.80615028 9.88723477 29.80615028 9.88723477 28.60131836 11.28515625 Z M-16 14 C-16.46047736 20.5951287 -16.77310034 27.18607651 -16.98876953 33.79370117 C-17.07871874 36.03453254 -17.20115351 38.27432387 -17.35791016 40.51147461 C-18.58286624 53.0607006 -18.58286624 53.0607006 -14.19128418 64.34918213 C-10.31936814 67.9784581 -2.6713793 75 3 75 C3.12687837 68.39823957 3.21438377 61.796794 3.2746582 55.1940918 C3.29978723 52.94852956 3.33389615 50.703049 3.37719727 48.45776367 C3.43791776 45.22814782 3.46622631 41.99961416 3.48828125 38.76953125 C3.51408768 37.76727005 3.5398941 36.76500885 3.56648254 35.7323761 C3.58649939 29.87090954 3.58649939 29.87090954 0.58911133 24.92578125 C-0.26529541 24.29027344 -1.11970215 23.65476562 -2 23 C-2.63164063 22.47792969 -3.26328125 21.95585938 -3.9140625 21.41796875 C-4.47867188 21.01191406 -5.04328125 20.60585938 -5.625 20.1875 C-6.19476563 19.76855469 -6.76453125 19.34960938 -7.3515625 18.91796875 C-9.12236767 17.75673921 -9.12236767 17.75673921 -12 18 C-12 17.34 -12 16.68 -12 16 C-12.66 16 -13.32 16 -14 16 C-14 15.34 -14 14.68 -14 14 C-14.66 14 -15.32 14 -16 14 Z M33.625 18.8125 C32.47146559 19.71498619 31.3178223 20.61733323 30.1640625 21.51953125 C29.65311035 21.92276611 29.1421582 22.32600098 28.61572266 22.74145508 C27 24 27 24 24.92739868 25.28198242 C22.81448136 26.82766032 22.81448136 26.82766032 22.51898193 29.18302917 C22.52786438 30.02908218 22.53674683 30.87513519 22.54589844 31.74682617 C22.54620056 32.70759567 22.54650269 33.66836517 22.54681396 34.6582489 C22.56745911 35.69270645 22.58810425 36.727164 22.609375 37.79296875 C22.61503479 38.85413406 22.62069458 39.91529938 22.62652588 41.00862122 C22.64893857 44.40203735 22.69914551 47.79440235 22.75 51.1875 C22.7700586 53.48631289 22.78831048 55.78514231 22.8046875 58.08398438 C22.8488193 63.72301564 22.91578028 69.36143273 23 75 C24.66941928 73.96275052 26.33536952 72.9199175 28 71.875 C28.928125 71.29492188 29.85625 70.71484375 30.8125 70.1171875 C31.864375 69.41851562 32.91625 68.71984375 34 68 C35.05568176 67.41029922 35.05568176 67.41029922 36.13269043 66.8086853 C39.36011801 64.81055936 41.60467858 63.36286817 42.69165039 59.61553955 C42.92666521 56.68215983 42.9003974 53.85441693 42.78125 50.9140625 C42.76993042 49.85714203 42.75861084 48.80022156 42.74694824 47.71127319 C42.7022907 44.34731021 42.6019427 40.98766638 42.5 37.625 C42.45985951 35.33990546 42.42335975 33.05474387 42.390625 30.76953125 C42.30259165 25.17822279 42.16886291 19.58941991 42 14 C38.57470376 14 36.21898042 16.75845603 33.625 18.8125 Z M8 31 C7.9747311 37.81761894 7.95716756 44.63522589 7.94506836 51.45288086 C7.94002667 53.77417451 7.93319349 56.09546497 7.92456055 58.41674805 C7.91248775 61.74528795 7.90677021 65.07378602 7.90234375 68.40234375 C7.89718246 69.44712387 7.89202118 70.49190399 7.88670349 71.56834412 C7.88662796 72.52926468 7.88655243 73.49018524 7.88647461 74.48022461 C7.884254 75.33071884 7.88203339 76.18121307 7.87974548 77.05747986 C7.78519716 79.00588545 7.78519716 79.00588545 9 80 C10.87321948 80.16053815 10.87321948 80.16053815 13 80.125 C13.721875 80.12757812 14.44375 80.13015625 15.1875 80.1328125 C17.02089415 80.19695276 17.02089415 80.19695276 18 79 C18.09822744 77.53194708 18.1279837 76.0592254 18.12939453 74.58789062 C18.13254669 73.65021851 18.13569885 72.71254639 18.13894653 71.74645996 C18.1369223 70.72669067 18.13489807 69.70692139 18.1328125 68.65625 C18.13376923 67.61682251 18.13472595 66.57739502 18.13571167 65.50646973 C18.13639363 63.30395446 18.13453827 61.10143721 18.13037109 58.89892578 C18.12502308 55.51460281 18.13031559 52.13041256 18.13671875 48.74609375 C18.13605797 46.61197887 18.13477681 44.47786408 18.1328125 42.34375 C18.13584885 40.81409607 18.13584885 40.81409607 18.13894653 39.25354004 C18.13579437 38.31586792 18.13264221 37.3781958 18.12939453 36.41210938 C18.12859894 35.58239624 18.12780334 34.75268311 18.12698364 33.89782715 C18.20842552 31.98898476 18.20842552 31.98898476 17 31 C15.48071962 30.92820036 13.95832518 30.91607993 12.4375 30.9375 C11.19806641 30.95103516 11.19806641 30.95103516 9.93359375 30.96484375 C8.97646484 30.98224609 8.97646484 30.98224609 8 31 Z " fill="#D7CAB7" transform="translate(87,36)"/>
<path d="M0 0 C1.8125 0.1875 1.8125 0.1875 4 1 C7 5.17857143 7 5.17857143 7 8 C6.34 8 5.68 8 5 8 C4.731875 7.195625 4.46375 6.39125 4.1875 5.5625 C3.795625 4.716875 3.40375 3.87125 3 3 C2.01 2.67 1.02 2.34 0 2 C0 3.98 0 5.96 0 8 C-2.64 6.35 -5.28 4.7 -8 3 C-7.67 4.32 -7.34 5.64 -7 7 C-6.01 7.33 -5.02 7.66 -4 8 C-4.309375 9.7634375 -4.309375 9.7634375 -4.625 11.5625 C-4.76007334 13.80103832 -4.76007334 13.80103832 -4 16 C-1.65335266 18.19539014 0.77602285 19.79034 3.51953125 21.45703125 C6 23 6 23 7.54296875 24.68359375 C9.54787284 26.49499504 10.84154843 26.33861505 13.5 26.25 C14.2734375 26.23453125 15.046875 26.2190625 15.84375 26.203125 C18.1822807 26.06471705 18.1822807 26.06471705 21 25 C21.4125 24.236875 21.825 23.47375 22.25 22.6875 C24.08791285 19.86499098 24.72299281 19.51413186 27.625 18.1875 C29.99263089 16.98623885 30.82366853 16.5289944 31.67578125 13.97265625 C32.00438339 11.50215232 32.00438339 11.50215232 32 8 C31.01 8 30.02 8 29 8 C29.57344937 5.13275314 29.8614515 4.1385485 32 2 C32.99 2 33.98 2 35 2 C35 5.63 35 9.26 35 13 C36.65 13 38.3 13 40 13 C38.45749264 17.58467467 34.80296691 19.62305097 31 22.25 C30.35804687 22.70890625 29.71609375 23.1678125 29.0546875 23.640625 C24.27557664 27 24.27557664 27 22 27 C22 43.5 22 60 22 77 C22.99 76.67 23.98 76.34 25 76 C25.33 76.66 25.66 77.32 26 78 C24.68 78 23.36 78 22 78 C21.67 78.66 21.34 79.32 21 80 C20 79 20 79 19.87974548 76.98155212 C19.88196609 76.09552811 19.88418671 75.20950409 19.88647461 74.29663086 C19.88655014 73.29566879 19.88662567 72.29470673 19.88670349 71.26341248 C19.89186478 70.1748848 19.89702606 69.08635712 19.90234375 67.96484375 C19.9037587 66.85645645 19.90517365 65.74806915 19.90663147 64.60609436 C19.91224967 61.04986931 19.92480525 57.49370617 19.9375 53.9375 C19.94251266 51.53320403 19.94707597 49.12890708 19.95117188 46.72460938 C19.96222501 40.81638496 19.97898083 34.9081969 20 29 C19.01 29.33 18.02 29.66 17 30 C9.94938918 30.47469459 9.94938918 30.47469459 7 29 C7 45.83 7 62.66 7 80 C8.485 80.495 8.485 80.495 10 81 C10 81.33 10 81.66 10 82 C2.28125 82.296875 2.28125 82.296875 -1 80 C-1.70382813 79.26394531 -2.40765625 78.52789062 -3.1328125 77.76953125 C-7.03620769 73.99908549 -11.38054469 71.02603289 -15.82421875 67.9296875 C-16.47519531 67.465625 -17.12617187 67.0015625 -17.796875 66.5234375 C-18.38823242 66.11013184 -18.97958984 65.69682617 -19.58886719 65.27099609 C-21.69931959 63.37012841 -21.97441195 61.44295386 -22.13371277 58.68530273 C-22.13943047 57.32320679 -22.13943047 57.32320679 -22.14526367 55.93359375 C-22.15164352 54.90242432 -22.15802338 53.87125488 -22.16459656 52.80883789 C-22.16570938 51.69629639 -22.1668222 50.58375488 -22.16796875 49.4375 C-22.17129715 48.29466553 -22.17462555 47.15183105 -22.17805481 45.97436523 C-22.18311993 43.55680748 -22.18546326 41.13924274 -22.18530273 38.72167969 C-22.18749123 35.01485756 -22.2056571 31.30833202 -22.22460938 27.6015625 C-22.22754292 25.25520935 -22.22952798 22.90885479 -22.23046875 20.5625 C-22.23765427 19.4499585 -22.24483978 18.33741699 -22.25224304 17.19116211 C-22.24916641 16.15999268 -22.24608978 15.12882324 -22.24291992 14.06640625 C-22.24434494 13.15834229 -22.24576996 12.25027832 -22.24723816 11.31469727 C-22 9 -22 9 -20 6 C-16.00544473 6.61454696 -13.25533664 8.70646737 -10 11 C-10.185625 9.72125 -10.37125 8.4425 -10.5625 7.125 C-11.125 3.25 -11.125 3.25 -10 1 C-6.62537285 1.54723683 -4.91765 2.0549 -2 4 C-1.34 2.68 -0.68 1.36 0 0 Z M-16 14 C-16.46047736 20.5951287 -16.77310034 27.18607651 -16.98876953 33.79370117 C-17.07871874 36.03453254 -17.20115351 38.27432387 -17.35791016 40.51147461 C-18.58286624 53.0607006 -18.58286624 53.0607006 -14.19128418 64.34918213 C-10.31936814 67.9784581 -2.6713793 75 3 75 C3.12687837 68.39823957 3.21438377 61.796794 3.2746582 55.1940918 C3.29978723 52.94852956 3.33389615 50.703049 3.37719727 48.45776367 C3.43791776 45.22814782 3.46622631 41.99961416 3.48828125 38.76953125 C3.51408768 37.76727005 3.5398941 36.76500885 3.56648254 35.7323761 C3.58649939 29.87090954 3.58649939 29.87090954 0.58911133 24.92578125 C-0.26529541 24.29027344 -1.11970215 23.65476562 -2 23 C-2.63164063 22.47792969 -3.26328125 21.95585938 -3.9140625 21.41796875 C-4.47867188 21.01191406 -5.04328125 20.60585938 -5.625 20.1875 C-6.19476563 19.76855469 -6.76453125 19.34960938 -7.3515625 18.91796875 C-9.12236767 17.75673921 -9.12236767 17.75673921 -12 18 C-12 17.34 -12 16.68 -12 16 C-12.66 16 -13.32 16 -14 16 C-14 15.34 -14 14.68 -14 14 C-14.66 14 -15.32 14 -16 14 Z " fill="#DDD4C7" transform="translate(87,36)"/>
<path d="M0 0 C0.99 0 1.98 0 3 0 C3 3.63 3 7.26 3 11 C4.65 11 6.3 11 8 11 C6.45749264 15.58467467 2.80296691 17.62305097 -1 20.25 C-1.64195313 20.70890625 -2.28390625 21.1678125 -2.9453125 21.640625 C-7.72442336 25 -7.72442336 25 -10 25 C-10 41.5 -10 58 -10 75 C-8.515 74.505 -8.515 74.505 -7 74 C-6.505 74.99 -6.505 74.99 -6 76 C-7.32 76 -8.64 76 -10 76 C-10.33 76.66 -10.66 77.32 -11 78 C-12 77 -12 77 -12.12025452 74.98155212 C-12.11803391 74.09552811 -12.11581329 73.20950409 -12.11352539 72.29663086 C-12.11344986 71.29566879 -12.11337433 70.29470673 -12.11329651 69.26341248 C-12.10813522 68.1748848 -12.10297394 67.08635712 -12.09765625 65.96484375 C-12.0962413 64.85645645 -12.09482635 63.74806915 -12.09336853 62.60609436 C-12.08775033 59.04986931 -12.07519475 55.49370617 -12.0625 51.9375 C-12.05748734 49.53320403 -12.05292403 47.12890708 -12.04882812 44.72460938 C-12.03777499 38.81638496 -12.02101917 32.9081969 -12 27 C-12.99 27.33 -13.98 27.66 -15 28 C-22.05061082 28.47469459 -22.05061082 28.47469459 -25 27 C-25 43.83 -25 60.66 -25 78 C-24.01 78.33 -23.02 78.66 -22 79 C-22 79.33 -22 79.66 -22 80 C-23.65 80 -25.3 80 -27 80 C-28.92922699 76.74785231 -29.24461321 74.34722668 -29.22705078 70.58886719 C-29.22689972 69.50804871 -29.22674866 68.42723022 -29.22659302 67.31365967 C-29.21627045 66.15312073 -29.20594788 64.99258179 -29.1953125 63.796875 C-29.1924826 62.60394836 -29.18965271 61.41102173 -29.18673706 60.1819458 C-29.17554053 56.37119524 -29.15043653 52.56067955 -29.125 48.75 C-29.11496954 46.16667006 -29.1058438 43.58333644 -29.09765625 41 C-29.07560289 34.66658651 -29.04213035 28.33331003 -29 22 C-26.83125748 22.50603992 -25.00032373 22.99983813 -23 24 C-21.52331663 24.0952699 -20.04224543 24.12985959 -18.5625 24.125 C-17.78003906 24.12757812 -16.99757813 24.13015625 -16.19140625 24.1328125 C-13.82104653 24.08382548 -13.82104653 24.08382548 -11 23 C-10.5875 22.236875 -10.175 21.47375 -9.75 20.6875 C-7.91208715 17.86499098 -7.27700719 17.51413186 -4.375 16.1875 C-2.00736911 14.98623885 -1.17633147 14.5289944 -0.32421875 11.97265625 C0.00438339 9.50215232 0.00438339 9.50215232 0 6 C-0.99 6 -1.98 6 -3 6 C-2.42655063 3.13275314 -2.1385485 2.1385485 0 0 Z " fill="#CBB79D" transform="translate(119,38)"/>
<path d="M0 0 C1.35158203 0.15275391 1.35158203 0.15275391 2.73046875 0.30859375 C3.41753906 0.39238281 4.10460937 0.47617188 4.8125 0.5625 C4.86148438 1.56152344 4.91046875 2.56054688 4.9609375 3.58984375 C5.03570312 4.88019531 5.11046875 6.17054688 5.1875 7.5 C5.25710937 8.78777344 5.32671875 10.07554687 5.3984375 11.40234375 C5.53507812 12.44519531 5.67171875 13.48804688 5.8125 14.5625 C6.4725 14.8925 7.1325 15.2225 7.8125 15.5625 C7.8125 14.2425 7.8125 12.9225 7.8125 11.5625 C9.1325 11.5625 10.4525 11.5625 11.8125 11.5625 C12.1425 12.5525 12.4725 13.5425 12.8125 14.5625 C13.8025 14.8925 14.7925 15.2225 15.8125 15.5625 C15.08420256 12.26628292 15.08420256 12.26628292 11.75 10.8125 C10.780625 10.07 9.81125 9.3275 8.8125 8.5625 C8.4375 4.8125 8.4375 4.8125 8.8125 1.5625 C11.21795638 0.35977181 12.76246953 0.46178528 15.4375 0.5 C16.66339844 0.51353516 16.66339844 0.51353516 17.9140625 0.52734375 C18.54054687 0.53894531 19.16703125 0.55054688 19.8125 0.5625 C19.8125 2.5425 19.8125 4.5225 19.8125 6.5625 C19.214375 6.253125 18.61625 5.94375 18 5.625 C15.72293228 4.46040296 15.72293228 4.46040296 12.8125 3.5625 C15.3287178 6.16858273 17.86384359 8.45631685 20.8125 10.5625 C20.55688677 12.9056213 20.21979228 15.24093403 19.8125 17.5625 C16.81522951 19.06113524 13.89268009 18.95895823 10.5625 19.1875 C9.25796875 19.28289062 7.9534375 19.37828125 6.609375 19.4765625 C3.16011244 19.55463223 0.17904439 19.26299216 -3.1875 18.5625 C-3.1875 17.5725 -3.1875 16.5825 -3.1875 15.5625 C-2.5275 15.2325 -1.8675 14.9025 -1.1875 14.5625 C-1.208125 13.469375 -1.22875 12.37625 -1.25 11.25 C-1.1875 7.5625 -1.1875 7.5625 -0.1875 4.5625 C-2.8275 4.8925 -5.4675 5.2225 -8.1875 5.5625 C-8.21462066 6.99989513 -8.23395067 8.43743863 -8.25 9.875 C-8.26160156 10.67550781 -8.27320312 11.47601563 -8.28515625 12.30078125 C-8.28407855 14.73111334 -8.28407855 14.73111334 -7.1875 17.5625 C-7.8475 18.2225 -8.5075 18.8825 -9.1875 19.5625 C-11.91619407 19.52962417 -14.4841618 18.99852229 -17.1875 18.5625 C-17.1875 17.5725 -17.1875 16.5825 -17.1875 15.5625 C-16.5275 15.5625 -15.8675 15.5625 -15.1875 15.5625 C-15.1875 11.9325 -15.1875 8.3025 -15.1875 4.5625 C-15.8475 4.5625 -16.5075 4.5625 -17.1875 4.5625 C-17.1875 3.5725 -17.1875 2.5825 -17.1875 1.5625 C-10.4375 0.5625 -10.4375 0.5625 -8.1875 0.5625 C-4.98734144 -0.50421952 -3.30205706 -0.38595472 0 0 Z " fill="#BBBDCC" transform="translate(85.1875,145.4375)"/>
<path d="M0 0 C0.02505615 0.67579102 0.0501123 1.35158203 0.07592773 2.04785156 C0.19210742 5.1154168 0.31473437 8.18269158 0.4375 11.25 C0.47681641 12.31347656 0.51613281 13.37695312 0.55664062 14.47265625 C0.59853516 15.49746094 0.64042969 16.52226562 0.68359375 17.578125 C0.72025146 18.52075195 0.75690918 19.46337891 0.79467773 20.43457031 C0.97939228 22.74251377 1.35861612 24.78140524 2 27 C-0.06168985 27.19620767 -2.12440998 27.38160753 -4.1875 27.5625 C-5.33605469 27.66691406 -6.48460937 27.77132812 -7.66796875 27.87890625 C-10.7040205 27.98924342 -13.05770631 27.6290421 -16 27 C-17.5159375 27.3403125 -17.5159375 27.3403125 -19.0625 27.6875 C-22 28 -22 28 -24.3125 26.4375 C-27.04243733 22.49425719 -27.17006109 19.31189981 -26.5625 14.625 C-26.376875 13.75875 -26.19125 12.8925 -26 12 C-26.99 12 -27.98 12 -29 12 C-29 11.01 -29 10.02 -29 9 C-26.36 9 -23.72 9 -21 9 C-20.67 13.29 -20.34 17.58 -20 22 C-19.01 22 -18.02 22 -17 22 C-15.5216774 19.04335481 -15.93967217 16.25770263 -16 13 C-16.66 12.67 -17.32 12.34 -18 12 C-18 11.01 -18 10.02 -18 9 C-15.36 9 -12.72 9 -10 9 C-9.505 15.93 -9.505 15.93 -9 23 C-8.01 23 -7.02 23 -6 23 C-5.67 16.73 -5.34 10.46 -5 4 C-5.99 4 -6.98 4 -8 4 C-7.67 2.68 -7.34 1.36 -7 0 C-2.25 -1.125 -2.25 -1.125 0 0 Z " fill="#B2B5C7" transform="translate(170,137)"/>
<path d="M0 0 C0.33 0 0.66 0 1 0 C1.33 15.51 1.66 31.02 2 47 C7.61 43.04 13.22 39.08 19 35 C19.33 35.66 19.66 36.32 20 37 C19.34 37 18.68 37 18 37 C18 37.66 18 38.32 18 39 C18.99 39.33 19.98 39.66 21 40 C17.98386511 42.25635207 14.96127246 44.50389636 11.9375 46.75 C11.08994141 47.38421875 10.24238281 48.0184375 9.36914062 48.671875 C-4.37253005 58.85875056 -4.37253005 58.85875056 -12 59 C-14.9375 57.5625 -14.9375 57.5625 -17 56 C-15.68 55.34 -14.36 54.68 -13 54 C-13.66 53.67 -14.32 53.34 -15 53 C-15 36.17 -15 19.34 -15 2 C-10.71 2 -6.42 2 -2 2 C-1.67 18.5 -1.34 35 -1 52 C-0.01 51.34 0.98 50.68 2 50 C1.34 50 0.68 50 0 50 C0 33.5 0 17 0 0 Z M-14 4 C-14.0252689 10.81761894 -14.04283244 17.63522589 -14.05493164 24.45288086 C-14.05997333 26.77417451 -14.06680651 29.09546497 -14.07543945 31.41674805 C-14.08751225 34.74528795 -14.09322979 38.07378602 -14.09765625 41.40234375 C-14.10281754 42.44712387 -14.10797882 43.49190399 -14.11329651 44.56834412 C-14.11337204 45.52926468 -14.11344757 46.49018524 -14.11352539 47.48022461 C-14.115746 48.33071884 -14.11796661 49.18121307 -14.12025452 50.05747986 C-14.21480284 52.00588545 -14.21480284 52.00588545 -13 53 C-11.12678052 53.16053815 -11.12678052 53.16053815 -9 53.125 C-8.278125 53.12757812 -7.55625 53.13015625 -6.8125 53.1328125 C-4.97910585 53.19695276 -4.97910585 53.19695276 -4 52 C-3.90177256 50.53194708 -3.8720163 49.0592254 -3.87060547 47.58789062 C-3.86745331 46.65021851 -3.86430115 45.71254639 -3.86105347 44.74645996 C-3.8630777 43.72669067 -3.86510193 42.70692139 -3.8671875 41.65625 C-3.86623077 40.61682251 -3.86527405 39.57739502 -3.86428833 38.50646973 C-3.86360637 36.30395446 -3.86546173 34.10143721 -3.86962891 31.89892578 C-3.87497692 28.51460281 -3.86968441 25.13041256 -3.86328125 21.74609375 C-3.86394203 19.61197887 -3.86522319 17.47786408 -3.8671875 15.34375 C-3.86415115 13.81409607 -3.86415115 13.81409607 -3.86105347 12.25354004 C-3.86420563 11.31586792 -3.86735779 10.3781958 -3.87060547 9.41210938 C-3.87140106 8.58239624 -3.87219666 7.75268311 -3.87301636 6.89782715 C-3.79157448 4.98898476 -3.79157448 4.98898476 -5 4 C-6.51928038 3.92820036 -8.04167482 3.91607993 -9.5625 3.9375 C-10.80193359 3.95103516 -10.80193359 3.95103516 -12.06640625 3.96484375 C-13.02353516 3.98224609 -13.02353516 3.98224609 -14 4 Z " fill="#E1DACF" transform="translate(109,63)"/>
<path d="M0 0 C3.63 0 7.26 0 11 0 C11 1.32 11 2.64 11 4 C10.34 4 9.68 4 9 4 C9 9.94 9 15.88 9 22 C11.97 22 14.94 22 18 22 C18.33 20.68 18.66 19.36 19 18 C19.99 18 20.98 18 22 18 C22.33 19.32 22.66 20.64 23 22 C23.33 18.7 23.66 15.4 24 12 C23.01 12 22.02 12 21 12 C21.33 10.68 21.66 9.36 22 8 C24.31 8 26.62 8 29 8 C29.04898438 8.99902344 29.09796875 9.99804688 29.1484375 11.02734375 C29.22320312 12.31769531 29.29796875 13.60804688 29.375 14.9375 C29.44460937 16.22527344 29.51421875 17.51304687 29.5859375 18.83984375 C29.72257812 19.88269531 29.85921875 20.92554688 30 22 C30.66 22.33 31.32 22.66 32 23 C32 23.99 32 24.98 32 26 C21.67234288 28.42777014 10.45600872 26.97265197 0 26 C-0.33 25.01 -0.66 24.02 -1 23 C-0.01 22.67 0.98 22.34 2 22 C1.98839844 21.11957031 1.97679687 20.23914063 1.96484375 19.33203125 C1.95582031 18.17058594 1.94679688 17.00914062 1.9375 15.8125 C1.92589844 14.66394531 1.91429687 13.51539063 1.90234375 12.33203125 C1.98807168 9.40699414 2.32150977 6.83683709 3 4 C2.01 4 1.02 4 0 4 C0 2.68 0 1.36 0 0 Z " fill="#B2B5C6" transform="translate(16,138)"/>
<path d="M0 0 C2.31 0 4.62 0 7 0 C7 2.97 7 5.94 7 9 C8.0828125 8.6596875 8.0828125 8.6596875 9.1875 8.3125 C12.81695175 7.90922758 14.13061469 8.82857328 17 11 C19.47264309 14.70896464 19.76100945 17.701551 19 22 C17.25 25 17.25 25 14 27 C9.96047734 27.45710388 6.0415894 27.43391297 2 27 C1 26 1 26 0.88647461 23.86694336 C0.89171143 22.95050049 0.89694824 22.03405762 0.90234375 21.08984375 C0.90556641 20.10048828 0.90878906 19.11113281 0.91210938 18.09179688 C0.92048828 17.05087891 0.92886719 16.00996094 0.9375 14.9375 C0.94201172 13.89271484 0.94652344 12.84792969 0.95117188 11.77148438 C0.96300087 9.1809334 0.97948311 6.59049441 1 4 C0.34 4 -0.32 4 -1 4 C-0.67 2.68 -0.34 1.36 0 0 Z M8 12 C6.74050951 13.03406673 6.74050951 13.03406673 6.90234375 15.28515625 C6.91394531 16.20167969 6.92554688 17.11820313 6.9375 18.0625 C6.94652344 18.98160156 6.95554687 19.90070313 6.96484375 20.84765625 C6.97644531 21.55792969 6.98804688 22.26820313 7 23 C8.32 23.33 9.64 23.66 11 24 C12.98814576 21.76333601 13.94562859 20.44584554 14.3125 17.4375 C14.15077513 14.74474036 14.15077513 14.74474036 12 12 C10.68 12 9.36 12 8 12 Z " fill="#6A6E94" transform="translate(48,137)"/>
<path d="M0 0 C3.96 0 7.92 0 12 0 C12 1.32 12 2.64 12 4 C11.34 4 10.68 4 10 4 C11.65 7.63 13.3 11.26 15 15 C15.70125 13.4325 16.4025 11.865 17.125 10.25 C17.51945312 9.36828125 17.91390625 8.4865625 18.3203125 7.578125 C19.26334475 5.01423005 19.26334475 5.01423005 18.1171875 2.671875 C17.74851562 2.12015625 17.37984375 1.5684375 17 1 C18 0 18 0 20.06640625 -0.09765625 C21.30197266 -0.08025391 21.30197266 -0.08025391 22.5625 -0.0625 C23.38878906 -0.05347656 24.21507813 -0.04445312 25.06640625 -0.03515625 C25.70449219 -0.02355469 26.34257812 -0.01195312 27 0 C27 1.32 27 2.64 27 4 C26.01 4 25.02 4 24 4 C23.608125 5.2375 23.21625 6.475 22.8125 7.75 C21.47914112 11.6997612 20.06901712 15.61281386 18.5625 19.5 C17.97662109 21.03140625 17.97662109 21.03140625 17.37890625 22.59375 C16 25 16 25 13.83984375 25.84375 C12.92912109 25.92109375 12.92912109 25.92109375 12 26 C9.85403823 21.27431823 7.82037974 16.54906972 6 11.6875 C4.54110434 7.94763255 3.02511807 5.70099827 0 3 C0 2.01 0 1.02 0 0 Z " fill="#AAACBF" transform="translate(102,138)"/>
<path d="M0 0 C2.0625 0.4375 2.0625 0.4375 4 1 C4.06944095 8.39727248 4.12278091 15.79447494 4.15543652 23.19200706 C4.17110785 26.62681954 4.19237214 30.06140941 4.22631836 33.49609375 C4.2650808 37.44268144 4.27969712 41.38917828 4.29296875 45.3359375 C4.30845261 46.57242035 4.32393646 47.8089032 4.33988953 49.08285522 C4.34011612 50.22388702 4.34034271 51.36491882 4.34057617 52.54052734 C4.34723801 53.548685 4.35389984 54.55684265 4.36076355 55.59555054 C4.24171158 56.38901886 4.12265961 57.18248718 4 58 C1 60 1 60 -3 60 C-3 59.34 -3 58.68 -3 58 C-2.34 58 -1.68 58 -1 58 C-0.67 40.84 -0.34 23.68 0 6 C-0.99 6 -1.98 6 -3 6 C-1.125 1.125 -1.125 1.125 0 0 Z " fill="#CDBBA3" transform="translate(130,42)"/>
<path d="M0 0 C2.28062828 3.42094242 2.21925007 4.68187222 2.125 8.6875 C2.10695312 9.68136719 2.08890625 10.67523438 2.0703125 11.69921875 C2.04710937 12.45847656 2.02390625 13.21773437 2 14 C2.99 14 3.98 14 5 14 C5 14.99 5 15.98 5 17 C4.34 17 3.68 17 3 17 C2.67 17.66 2.34 18.32 2 19 C1.113125 18.814375 0.22625 18.62875 -0.6875 18.4375 C-3.90052378 17.79779779 -3.90052378 17.79779779 -6.5625 18.6875 C-9 19 -9 19 -11.8125 17.0625 C-12.534375 16.381875 -13.25625 15.70125 -14 15 C-13.32282534 12.29130134 -12.71022925 10.47906973 -10.34375 8.8828125 C-9.7146875 8.55023438 -9.085625 8.21765625 -8.4375 7.875 C-4.74367937 6.36673567 -4.74367937 6.36673567 -4 3 C-4.99 3 -5.98 3 -7 3 C-7.33 3.99 -7.66 4.98 -8 6 C-9.32 5.67 -10.64 5.34 -12 5 C-11.66260373 2.469528 -11.3938922 1.3181437 -9.375 -0.3125 C-5.96407865 -1.29987197 -3.42094835 -0.82356164 0 0 Z M-6 10 C-6.33 11.32 -6.66 12.64 -7 14 C-6.01 13.67 -5.02 13.34 -4 13 C-4.33 12.01 -4.66 11.02 -5 10 C-5.33 10 -5.66 10 -6 10 Z " fill="#A9AABF" transform="translate(138,146)"/>
<path d="M0 0 C3.63 0 7.26 0 11 0 C11 1.32 11 2.64 11 4 C10.34 4 9.68 4 9 4 C9 9.94 9 15.88 9 22 C12.3 22 15.6 22 19 22 C19.33 21.34 19.66 20.68 20 20 C20 21.65 20 23.3 20 25 C13.73 25 7.46 25 1 25 C1.66 24.34 2.32 23.68 3 23 C3.36894582 20.96939341 3.36894582 20.96939341 3.4140625 18.6484375 C3.45273437 17.79765625 3.49140625 16.946875 3.53125 16.0703125 C3.5621875 15.18085938 3.593125 14.29140625 3.625 13.375 C3.66367187 12.4778125 3.70234375 11.580625 3.7421875 10.65625 C3.83659357 8.4377073 3.92216748 6.21917597 4 4 C2.68 4 1.36 4 0 4 C0 2.68 0 1.36 0 0 Z " fill="#727699" transform="translate(16,138)"/>
<path d="M0 0 C2.4375 0.75 2.4375 0.75 5 2 C5.8125 4.125 5.8125 4.125 6 6 C4.68 5.67 3.36 5.34 2 5 C2.11752011 12.06596142 2.24235309 19.13176629 2.37231445 26.19750977 C2.41567409 28.60210223 2.4573484 31.00672569 2.49731445 33.41137695 C2.55499189 36.86419016 2.61869385 40.31684719 2.68359375 43.76953125 C2.70866249 45.38683891 2.70866249 45.38683891 2.73423767 47.03681946 C2.75418289 48.03763046 2.77412811 49.03844147 2.79467773 50.06958008 C2.81022202 50.95116287 2.8257663 51.83274567 2.84178162 52.74104309 C2.9174752 55.1677108 2.9174752 55.1677108 4 58 C2.35 57.34 0.7 56.68 -1 56 C-1.02526563 48.18547248 -1.04283105 40.37095542 -1.05493164 32.55639648 C-1.05997383 29.89558519 -1.06680736 27.23477668 -1.07543945 24.57397461 C-1.08751009 20.75894484 -1.09322929 16.94395156 -1.09765625 13.12890625 C-1.10281754 11.93100967 -1.10797882 10.7331131 -1.11329651 9.49891663 C-1.11337204 8.3978508 -1.11344757 7.29678497 -1.11352539 6.16235352 C-1.115746 5.18750504 -1.11796661 4.21265656 -1.12025452 3.20826721 C-1 1 -1 1 0 0 Z " fill="#CBB9A0" transform="translate(68,43)"/>
<path d="M0 0 C2.64 0 5.28 0 8 0 C8.33 4.29 8.66 8.58 9 13 C9.99 13 10.98 13 12 13 C13.26237731 10.47524538 13.09856404 8.68799534 13.0625 5.875 C13.05347656 4.96492187 13.04445312 4.05484375 13.03515625 3.1171875 C13.02355469 2.41851562 13.01195312 1.71984375 13 1 C14.65 1 16.3 1 18 1 C18.06058594 1.98742187 18.12117188 2.97484375 18.18359375 3.9921875 C18.30927734 5.91417969 18.30927734 5.91417969 18.4375 7.875 C18.51871094 9.15117187 18.59992188 10.42734375 18.68359375 11.7421875 C18.79206027 14.88300152 18.79206027 14.88300152 20 17 C18.68 17 17.36 17 16 17 C16 16.01 16 15.02 16 14 C15.34 14 14.68 14 14 14 C13.67 15.32 13.34 16.64 13 18 C10.25 18.75 10.25 18.75 7 19 C4.02832397 16.99211079 3.1614405 15.57125101 2.1875 12.125 C1.99379987 8.89666443 2.32401741 6.15458542 3 3 C2.01 3 1.02 3 0 3 C0 2.01 0 1.02 0 0 Z " fill="#767A9C" transform="translate(141,146)"/>
<path d="M0 0 C1.32 0.33 2.64 0.66 4 1 C3.01 1.33 2.02 1.66 1 2 C1 20.15 1 38.3 1 57 C2.32 57.66 3.64 58.32 5 59 C4.505 57.515 4.505 57.515 4 56 C7.69396914 57.6645114 10.80752301 59.9126099 14.0625 62.3125 C15.10535156 63.07175781 16.14820313 63.83101562 17.22265625 64.61328125 C19.91077317 66.92332266 21.39865582 68.86934443 23 72 C17.43580468 71.55826236 14.2617651 69.49202757 9.9375 66.25 C9.33873047 65.81945312 8.73996094 65.38890625 8.12304688 64.9453125 C6.37268574 63.66465397 4.66422876 62.39167344 3 61 C2.11763672 60.36755371 1.23527344 59.73510742 0.32617188 59.08349609 C-3.25484295 54.33662191 -2.65920552 49.81368534 -2.55859375 44.0234375 C-2.55626236 42.86123688 -2.55393097 41.69903625 -2.55152893 40.50161743 C-2.54179763 38.04885502 -2.52002507 35.59611488 -2.48706055 33.14355469 C-2.43758975 29.38182456 -2.42557573 25.62140128 -2.41992188 21.859375 C-2.40583836 19.47654853 -2.38963486 17.09373345 -2.37109375 14.7109375 C-2.36573105 13.58279633 -2.36036835 12.45465515 -2.35484314 11.29232788 C-2.33885574 10.24759308 -2.32286835 9.20285828 -2.30639648 8.12646484 C-2.29575668 7.2066684 -2.28511688 6.28687195 -2.27415466 5.33920288 C-2 3 -2 3 0 0 Z " fill="#DAD0C3" transform="translate(67,42)"/>
<path d="M0 0 C1.22589844 0.01353516 1.22589844 0.01353516 2.4765625 0.02734375 C3.41628906 0.04474609 3.41628906 0.04474609 4.375 0.0625 C4.375 2.0425 4.375 4.0225 4.375 6.0625 C3.776875 5.753125 3.17875 5.44375 2.5625 5.125 C0.28543228 3.96040296 0.28543228 3.96040296 -2.625 3.0625 C-0.1087822 5.66858273 2.42634359 7.95631685 5.375 10.0625 C5.045 12.3725 4.715 14.6825 4.375 17.0625 C-3.05357143 18.34821429 -3.05357143 18.34821429 -6.625 17.0625 C-6.625 15.4125 -6.625 13.7625 -6.625 12.0625 C-5.635 12.0625 -4.645 12.0625 -3.625 12.0625 C-3.295 12.7225 -2.965 13.3825 -2.625 14.0625 C-1.635 14.3925 -0.645 14.7225 0.375 15.0625 C-0.35329744 11.76628292 -0.35329744 11.76628292 -3.6875 10.3125 C-4.656875 9.57 -5.62625 8.8275 -6.625 8.0625 C-7 4.3125 -7 4.3125 -6.625 1.0625 C-4.21954362 -0.14022819 -2.67503047 -0.03821472 0 0 Z " fill="#585C86" transform="translate(100.625,145.9375)"/>
<path d="M0 0 C0.66 0.33 1.32 0.66 2 1 C2 1.99 2 2.98 2 4 C3.65 4.33 5.3 4.66 7 5 C6.67 5.99 6.34 6.98 6 8 C4.68 8 3.36 8 2 8 C2 11.3 2 14.6 2 18 C3.65 17.67 5.3 17.34 7 17 C7 18.32 7 19.64 7 21 C6 22 6 22 3.125 22.1875 C0 22 0 22 -3 20 C-3.9730144 15.70251973 -4.16070564 12.25592068 -3 8 C-3.66 8 -4.32 8 -5 8 C-5 6.68 -5 5.36 -5 4 C-2.5 1.75 -2.5 1.75 0 0 Z " fill="#CACCD9" transform="translate(177,142)"/>
<path d="M0 0 C1.9375 0.3125 1.9375 0.3125 4 1 C4.33 1.99 4.66 2.98 5 4 C5.391875 3.505 5.78375 3.01 6.1875 2.5 C8.55091715 0.54406857 10.01435003 0.75792027 13 1 C13.33 3.97 13.66 6.94 14 10 C15.65 9.34 17.3 8.68 19 8 C18.34 9.32 17.68 10.64 17 12 C17.99 12 18.98 12 20 12 C20 28.5 20 45 20 62 C19.67 62 19.34 62 19 62 C19 46.16 19 30.32 19 14 C16.69 13.67 14.38 13.34 12 13 C12 9.37 12 5.74 12 2 C7.93975679 4.03802135 7.93975679 4.03802135 6 8 C6.99 8 7.98 8 9 8 C9 10.64 9 13.28 9 16 C8.34 16.33 7.68 16.66 7 17 C7 15.02 7 13.04 7 11 C5.68 11.99 4.36 12.98 3 14 C1.96840374 10.90521121 2.02517138 9.47368607 2.4375 6.3125 C2.53933594 5.50425781 2.64117187 4.69601563 2.74609375 3.86328125 C2.87177734 2.94095703 2.87177734 2.94095703 3 2 C1.35 2.66 -0.3 3.32 -2 4 C-1.34 2.68 -0.68 1.36 0 0 Z " fill="#E7E1D9" transform="translate(110,36)"/>
<path d="M0 0 C0.99 0 1.98 0 3 0 C3 3.63 3 7.26 3 11 C4.65 11 6.3 11 8 11 C6.47236536 15.08596252 3.88915809 16.79826179 0.375 19.25 C-0.62789062 19.95640625 -1.63078125 20.6628125 -2.6640625 21.390625 C-3.43492188 21.92171875 -4.20578125 22.4528125 -5 23 C-5.33 22.34 -5.66 21.68 -6 21 C-8.02463255 20.34786708 -8.02463255 20.34786708 -10 20 C-4.375 15.125 -4.375 15.125 -1 14 C-0.67 11.36 -0.34 8.72 0 6 C-0.99 6 -1.98 6 -3 6 C-2.42655063 3.13275314 -2.1385485 2.1385485 0 0 Z " fill="#C8B79D" transform="translate(119,38)"/>
<path d="M0 0 C2.28062828 3.42094242 2.21925007 4.68187222 2.125 8.6875 C2.10695312 9.68136719 2.08890625 10.67523438 2.0703125 11.69921875 C2.03550781 12.83810547 2.03550781 12.83810547 2 14 C2.99 14 3.98 14 5 14 C5 14.99 5 15.98 5 17 C4.34 17 3.68 17 3 17 C2.67 17.66 2.34 18.32 2 19 C1.113125 18.814375 0.22625 18.62875 -0.6875 18.4375 C-3.85178811 18.01957516 -5.94839642 18.19222258 -9 19 C-9.33 18.34 -9.66 17.68 -10 17 C-7 15 -7 15 -4 15 C-3.67 14.34 -3.34 13.68 -3 13 C-2.34 13.33 -1.68 13.66 -1 14 C-1 14.99 -1 15.98 -1 17 C-0.34 16.67 0.32 16.34 1 16 C0.67 15.67 0.34 15.34 0 15 C-0.23481693 12.81707226 -0.41363323 10.62796826 -0.5625 8.4375 C-0.64628906 7.23996094 -0.73007813 6.04242188 -0.81640625 4.80859375 C-0.87699219 3.88175781 -0.93757812 2.95492187 -1 2 C-1.66 2 -2.32 2 -3 2 C-3 3.65 -3 5.3 -3 7 C-3.66 6.67 -4.32 6.34 -5 6 C-4.67 5.01 -4.34 4.02 -4 3 C-4.99 3 -5.98 3 -7 3 C-7.33 3.99 -7.66 4.98 -8 6 C-9.32 5.67 -10.64 5.34 -12 5 C-11.66260373 2.469528 -11.3938922 1.3181437 -9.375 -0.3125 C-5.96407865 -1.29987197 -3.42094835 -0.82356164 0 0 Z " fill="#9194B0" transform="translate(138,146)"/>
<path d="M0 0 C1.32 0.33 2.64 0.66 4 1 C4.33 2.65 4.66 4.3 5 6 C5.66 6 6.32 6 7 6 C7.33 8.31 7.66 10.62 8 13 C6.68 12.01 5.36 11.02 4 10 C4.66 11.65 5.32 13.3 6 15 C0.89042302 12.83825589 -3.21827349 8.99182242 -7 5 C-7 6.98 -7 8.96 -7 11 C-7.33 11 -7.66 11 -8 11 C-8 7.7 -8 4.4 -8 1 C-5.08482708 2.07401108 -3.22189824 2.77810176 -1 5 C-0.67 3.35 -0.34 1.7 0 0 Z " fill="#C8B69C" transform="translate(87,38)"/>
<path d="M0 0 C0.81404297 0.35964844 0.81404297 0.35964844 1.64453125 0.7265625 C1.34288723 3.84121238 0.64957957 4.72198981 -1.71875 6.8671875 C-2.69199219 7.56328125 -3.66523437 8.259375 -4.66796875 8.9765625 C-5.63347656 9.68296875 -6.59898438 10.389375 -7.59375 11.1171875 C-10.35546875 12.7265625 -10.35546875 12.7265625 -14.35546875 12.7265625 C-14.08941765 9.19983858 -13.58547885 7.94782842 -10.9921875 5.453125 C-10.01894531 4.75960937 -9.04570313 4.06609375 -8.04296875 3.3515625 C-7.07746094 2.64257812 -6.11195312 1.93359375 -5.1171875 1.203125 C-2.35546875 -0.2734375 -2.35546875 -0.2734375 0 0 Z " fill="#D5C8B6" transform="translate(126.35546875,60.2734375)"/>
<path d="M0 0 C1.32 0 2.64 0 4 0 C4 7.59 4 15.18 4 23 C4.66 23 5.32 23 6 23 C6 23.66 6 24.32 6 25 C3.36 25 0.72 25 -2 25 C-1.34 24.34 -0.68 23.68 0 23 C0.37004294 20.77341846 0.37004294 20.77341846 0.4140625 18.2109375 C0.45273438 17.26992187 0.49140625 16.32890625 0.53125 15.359375 C0.5621875 14.37453125 0.593125 13.3896875 0.625 12.375 C0.66367188 11.38242188 0.70234375 10.38984375 0.7421875 9.3671875 C0.8366314 6.91164615 0.92219875 4.4561159 1 2 C0.34 1.67 -0.32 1.34 -1 1 C-0.67 0.67 -0.34 0.34 0 0 Z " fill="#3D4375" transform="translate(165,138)"/>
<path d="M0 0 C0 1.32 0 2.64 0 4 C-2.375 5.625 -2.375 5.625 -5 7 C-5.66 7.66 -6.32 8.32 -7 9 C-9.9375 11.1875 -9.9375 11.1875 -13 13 C-13.99 12.67 -14.98 12.34 -16 12 C-15.69835598 8.88535012 -15.00504832 8.00457269 -12.63671875 5.859375 C-11.66347656 5.16328125 -10.69023438 4.4671875 -9.6875 3.75 C-8.72199219 3.04359375 -7.75648437 2.3371875 -6.76171875 1.609375 C-4 0 -4 0 0 0 Z " fill="#D6CAB8" transform="translate(128,68)"/>
<path d="M0 0 C2.97 0 5.94 0 9 0 C9 1.32 9 2.64 9 4 C8.01 4 7.02 4 6 4 C5.80664062 4.59167969 5.61328125 5.18335938 5.4140625 5.79296875 C4.05585281 9.9146645 2.67949415 13.9950524 1 18 C0.67 18 0.34 18 0 18 C0 12 0 6 0 0 Z " fill="#A8AAC0" transform="translate(120,138)"/>
<path d="M0 0 C2.31 0 4.62 0 7 0 C7 2.97 7 5.94 7 9 C7.763125 8.79375 8.52625 8.5875 9.3125 8.375 C12 8 12 8 15 10 C10.545 10.495 10.545 10.495 6 11 C6 7.7 6 4.4 6 1 C4.02 1.99 4.02 1.99 2 3 C2.33 3.33 2.66 3.66 3 4 C3.08685603 5.56172745 3.10702219 7.12729344 3.09765625 8.69140625 C3.09443359 9.63564453 3.09121094 10.57988281 3.08789062 11.55273438 C3.07951172 12.54595703 3.07113281 13.53917969 3.0625 14.5625 C3.05798828 15.55958984 3.05347656 16.55667969 3.04882812 17.58398438 C3.03700007 20.05604849 3.02051849 22.52799518 3 25 C3.99 25.33 4.98 25.66 6 26 C4.0625 26.5625 4.0625 26.5625 2 27 C1 26 1 26 0.88647461 23.86694336 C0.89171143 22.95050049 0.89694824 22.03405762 0.90234375 21.08984375 C0.90556641 20.10048828 0.90878906 19.11113281 0.91210938 18.09179688 C0.92048828 17.05087891 0.92886719 16.00996094 0.9375 14.9375 C0.94201172 13.89271484 0.94652344 12.84792969 0.95117188 11.77148438 C0.96300087 9.1809334 0.97948311 6.59049441 1 4 C0.34 4 -0.32 4 -1 4 C-0.67 2.68 -0.34 1.36 0 0 Z " fill="#CCCED8" transform="translate(48,137)"/>
<path d="M0 0 C0.33 0 0.66 0 1 0 C1.33 15.51 1.66 31.02 2 47 C3.485 46.505 3.485 46.505 5 46 C5 46.66 5 47.32 5 48 C5.66 48.66 6.32 49.32 7 50 C3.535 52.475 3.535 52.475 0 55 C0 53.68 0 52.36 0 51 C0.99 50.505 0.99 50.505 2 50 C1.34 50 0.68 50 0 50 C0 33.5 0 17 0 0 Z " fill="#D9D0C0" transform="translate(109,63)"/>
<path d="M0 0 C1.98 0.495 1.98 0.495 4 1 C4 19.81 4 38.62 4 58 C2.68 58.66 1.36 59.32 0 60 C0.33 58.68 0.66 57.36 1 56 C1.66 56 2.32 56 3 56 C2.88236295 48.95235121 2.75753211 41.90485623 2.62768555 34.85742188 C2.58435845 32.45966485 2.54268178 30.0618774 2.50268555 27.6640625 C2.44492937 24.21865674 2.38124994 20.77340375 2.31640625 17.328125 C2.29969376 16.25508118 2.28298126 15.18203735 2.26576233 14.07647705 C2.24581711 13.07574158 2.22587189 12.0750061 2.20532227 11.04394531 C2.18977798 10.16458313 2.1742337 9.28522095 2.15821838 8.37921143 C2.00669003 6.10060145 1.75515285 4.15536386 1 2 C0.34 1.67 -0.32 1.34 -1 1 C-0.67 0.67 -0.34 0.34 0 0 Z " fill="#D9CFC2" transform="translate(130,42)"/>
<path d="M0 0 C0.33 0.99 0.66 1.98 1 3 C0.34 3 -0.32 3 -1 3 C-1 2.34 -1 1.68 -1 1 C-1.99 1.66 -2.98 2.32 -4 3 C-3.67 3.33 -3.34 3.66 -3 4 C-2.92755947 6.01964199 -2.91622812 8.04167124 -2.9375 10.0625 C-2.94652344 11.16722656 -2.95554687 12.27195313 -2.96484375 13.41015625 C-2.97644531 14.26480469 -2.98804687 15.11945313 -3 16 C-2.01 16 -1.02 16 0 16 C0 12.7 0 9.4 0 6 C0.33 6 0.66 6 1 6 C1.22786458 7.98567708 1.45572917 9.97135417 1.68359375 11.95703125 C1.97170735 14.19396393 1.97170735 14.19396393 3 17 C2.34 17.66 1.68 18.32 1 19 C-1.72869407 18.96712417 -4.2966618 18.43602229 -7 18 C-7 17.01 -7 16.02 -7 15 C-6.34 15 -5.68 15 -5 15 C-5 11.37 -5 7.74 -5 4 C-5.66 4 -6.32 4 -7 4 C-7 3.01 -7 2.02 -7 1 C-4.53721199 -0.231394 -2.7204945 -0.07159196 0 0 Z " fill="#ACAEC1" transform="translate(75,146)"/>
<path d="M0 0 C0.33 0.99 0.66 1.98 1 3 C2.32 3 3.64 3 5 3 C5 3.66 5 4.32 5 5 C3.68 5 2.36 5 1 5 C1.11382653 6.95901454 1.24141125 8.9172338 1.375 10.875 C1.44460937 11.96554688 1.51421875 13.05609375 1.5859375 14.1796875 C1.73253491 17.13046474 1.73253491 17.13046474 4 19 C2.35 19 0.7 19 -1 19 C-2.38226016 16.23547967 -2.09525387 13.9538637 -2.0625 10.875 C-2.05347656 9.77929688 -2.04445312 8.68359375 -2.03515625 7.5546875 C-2.02355469 6.71164063 -2.01195312 5.86859375 -2 5 C-2.66 5 -3.32 5 -4 5 C-4 4.34 -4 3.68 -4 3 C-2 1.375 -2 1.375 0 0 Z " fill="#3B4073" transform="translate(177,144)"/>
<path d="M0 0 C1.65 0.33 3.3 0.66 5 1 C5 1.66 5 2.32 5 3 C3.35 3 1.7 3 0 3 C-0.66 7.29 -1.32 11.58 -2 16 C-2.99 16 -3.98 16 -5 16 C-5.07347656 14.73542969 -5.07347656 14.73542969 -5.1484375 13.4453125 C-5.22320312 12.34960938 -5.29796875 11.25390625 -5.375 10.125 C-5.44460937 9.03445312 -5.51421875 7.94390625 -5.5859375 6.8203125 C-5.73253491 3.86953526 -5.73253491 3.86953526 -8 2 C-6.35 1.67 -4.7 1.34 -3 1 C-3 1.66 -3 2.32 -3 3 C-2.34 3 -1.68 3 -1 3 C-0.67 2.01 -0.34 1.02 0 0 Z " fill="#232962" transform="translate(77,146)"/>
<path d="M0 0 C0.99 0 1.98 0 3 0 C3.84800767 7.692641 4.12152487 15.26291674 4 23 C3.01 23.33 2.02 23.66 1 24 C0.83216738 20.56255588 0.66593456 17.12503622 0.5 13.6875 C0.42845703 12.22280273 0.42845703 12.22280273 0.35546875 10.72851562 C0.31035156 9.79072266 0.26523437 8.85292969 0.21875 7.88671875 C0.17685547 7.02264404 0.13496094 6.15856934 0.09179688 5.26831055 C0.02077599 3.51337696 0 1.75637008 0 0 Z " fill="#1D235F" transform="translate(50,138)"/>
<path d="M0 0 C2.79872437 2.52788007 4.45773019 4.20411134 5 8 C5.66 8 6.32 8 7 8 C7.66 6.68 8.32 5.36 9 4 C9.32136655 8.60625394 8.91033076 11.33513904 6 15 C5.01 15 4.02 15 3 15 C1.68272247 9.9943454 0.64187918 5.13503344 0 0 Z " fill="#575B86" transform="translate(111,149)"/>
<path d="M0 0 C0 4.29 0 8.58 0 13 C-0.99 13.33 -1.98 13.66 -3 14 C-3.33 12.35 -3.66 10.7 -4 9 C-4.99 9.66 -5.98 10.32 -7 11 C-6.74445946 9.53890937 -6.46999628 8.08111904 -6.1875 6.625 C-6.03667969 5.81289063 -5.88585937 5.00078125 -5.73046875 4.1640625 C-4.72269948 1.17847868 -3.19663259 0 0 0 Z " fill="#CCBDA6" transform="translate(113,38)"/>
<path d="M0 0 C1.65 0 3.3 0 5 0 C5.04898438 0.98742187 5.09796875 1.97484375 5.1484375 2.9921875 C5.22320312 4.27351562 5.29796875 5.55484375 5.375 6.875 C5.44460937 8.15117187 5.51421875 9.42734375 5.5859375 10.7421875 C5.67241106 14.08061699 5.67241106 14.08061699 8 16 C5.36 16 2.72 16 0 16 C0 15.34 0 14.68 0 14 C0.66 14 1.32 14 2 14 C2 10.04 2 6.08 2 2 C1.34 2 0.68 2 0 2 C0 1.34 0 0.68 0 0 Z " fill="#2A2F67" transform="translate(84,147)"/>
<path d="M0 0 C1.65 0 3.3 0 5 0 C5.04898438 0.98742187 5.09796875 1.97484375 5.1484375 2.9921875 C5.22320312 4.27351562 5.29796875 5.55484375 5.375 6.875 C5.44460937 8.15117187 5.51421875 9.42734375 5.5859375 10.7421875 C5.67241106 14.08061699 5.67241106 14.08061699 8 16 C5.36 16 2.72 16 0 16 C0.33 15.34 0.66 14.68 1 14 C1.22858114 11.9625237 1.41024278 9.91959697 1.5625 7.875 C1.64628906 6.77929688 1.73007812 5.68359375 1.81640625 4.5546875 C1.87699219 3.71164063 1.93757813 2.86859375 2 2 C1.34 2 0.68 2 0 2 C0 1.34 0 0.68 0 0 Z " fill="#2A3066" transform="translate(39,147)"/>
<path d="M0 0 C4.03082 1.612328 6.75944137 4.46234596 9.75 7.5 C10.25660156 7.99886719 10.76320313 8.49773438 11.28515625 9.01171875 C15 12.74658861 15 12.74658861 15 15 C20.55053286 14.25640327 20.55053286 14.25640327 26 13 C25.67 13.99 25.34 14.98 25 16 C22.23952457 16.92015848 20.36637731 17.19267245 17.5 17.25 C16.7265625 17.27578125 15.953125 17.3015625 15.15625 17.328125 C12.51169162 16.9256922 11.66759198 16.03104151 10 14 C10.99 14 11.98 14 13 14 C11.59234375 12.60974609 11.59234375 12.60974609 10.15625 11.19140625 C8.93736979 9.98190204 7.71862684 8.77225949 6.5 7.5625 C5.87996094 6.95083984 5.25992188 6.33917969 4.62109375 5.70898438 C4.03457031 5.12568359 3.44804688 4.54238281 2.84375 3.94140625 C2.02680664 3.13231812 2.02680664 3.13231812 1.19335938 2.30688477 C0 1 0 1 0 0 Z " fill="#E5DED5" transform="translate(83,46)"/>
<path d="M0 0 C0.66 0 1.32 0 2 0 C2.16852247 1.60397277 2.33474886 3.2081869 2.5 4.8125 C2.5928125 5.70582031 2.685625 6.59914063 2.78125 7.51953125 C3 10 3 10 3 13 C1.25 14.38671875 1.25 14.38671875 -1 15.6875 C-2.11375 16.34298828 -2.11375 16.34298828 -3.25 17.01171875 C-4.11625 17.50091797 -4.11625 17.50091797 -5 18 C-5 17.34 -5 16.68 -5 16 C-6.32 15.67 -7.64 15.34 -9 15 C-3.375 10.125 -3.375 10.125 0 9 C0 6.03 0 3.06 0 0 Z " fill="#D2C4AF" transform="translate(118,43)"/>
<path d="M0 0 C1.65 0 3.3 0 5 0 C5.06058594 0.98742187 5.12117187 1.97484375 5.18359375 2.9921875 C5.26738281 4.27351562 5.35117188 5.55484375 5.4375 6.875 C5.51871094 8.15117187 5.59992188 9.42734375 5.68359375 10.7421875 C5.79206027 13.88300152 5.79206027 13.88300152 7 16 C5.68 16 4.36 16 3 16 C3 15.01 3 14.02 3 13 C2.34 13 1.68 13 1 13 C1.01740234 11.84371094 1.01740234 11.84371094 1.03515625 10.6640625 C1.04417969 9.66117188 1.05320313 8.65828125 1.0625 7.625 C1.07410156 6.62726563 1.08570313 5.62953125 1.09765625 4.6015625 C1.18006602 2.01567547 1.18006602 2.01567547 0 0 Z " fill="#222862" transform="translate(154,147)"/>
<path d="M0 0 C0.33 0 0.66 0 1 0 C1 3.63 1 7.26 1 11 C1.99 11 2.98 11 4 11 C4 11.99 4 12.98 4 14 C3.34 14 2.68 14 2 14 C1.67 14.66 1.34 15.32 1 16 C0.113125 15.814375 -0.77375 15.62875 -1.6875 15.4375 C-4.85178811 15.01957516 -6.94839642 15.19222258 -10 16 C-10.33 15.34 -10.66 14.68 -11 14 C-8 12 -8 12 -5 12 C-4.67 11.34 -4.34 10.68 -4 10 C-3.34 10.33 -2.68 10.66 -2 11 C-2 11.99 -2 12.98 -2 14 C-1.34 13.67 -0.68 13.34 0 13 C0 8.71 0 4.42 0 0 Z " fill="#ADAFC4" transform="translate(139,149)"/>
<path d="M0 0 C0.33 0 0.66 0 1 0 C1.03738281 1.26457031 1.07476562 2.52914062 1.11328125 3.83203125 C1.17893833 5.4922173 1.24538576 7.15237222 1.3125 8.8125 C1.33505859 9.64587891 1.35761719 10.47925781 1.38085938 11.33789062 C1.41630859 12.14033203 1.45175781 12.94277344 1.48828125 13.76953125 C1.51446533 14.50792236 1.54064941 15.24631348 1.56762695 16.00708008 C2.10232963 18.47166391 3.09965347 19.40052324 5 21 C3.35 21 1.7 21 0 21 C-2.64523232 17.13856891 -2.0546234 13.25350885 -1.6875 8.8125 C-1.63916016 8.07580078 -1.59082031 7.33910156 -1.54101562 6.58007812 C-1.1460891 1.1460891 -1.1460891 1.1460891 0 0 Z " fill="#C9B499" transform="translate(92,97)"/>
<path d="M0 0 C0.99 0.33 1.98 0.66 3 1 C1.625 3 1.625 3 0 5 C-0.66 5 -1.32 5 -2 5 C-2 5.99 -2 6.98 -2 8 C-6.29 8 -10.58 8 -15 8 C-14.67 7.01 -14.34 6.02 -14 5 C-13.24074219 4.89042969 -12.48148437 4.78085937 -11.69921875 4.66796875 C-10.70535156 4.50941406 -9.71148437 4.35085937 -8.6875 4.1875 C-7.70136719 4.03667969 -6.71523437 3.88585938 -5.69921875 3.73046875 C-2.87300731 2.96563295 -1.8040872 2.24741238 0 0 Z " fill="#CBBAA2" transform="translate(111,58)"/>
<path d="M0 0 C0.99 0.33 1.98 0.66 3 1 C2.67 2.65 2.34 4.3 2 6 C1.01 6 0.02 6 -1 6 C-1 7.65 -1 9.3 -1 11 C-2.65 11 -4.3 11 -6 11 C-6.33 9.68 -6.66 8.36 -7 7 C-5.68 6.67 -4.36 6.34 -3 6 C-2.814375 5.071875 -2.814375 5.071875 -2.625 4.125 C-2 2 -2 2 0 0 Z " fill="#CBBAA1" transform="translate(104,50)"/>
<path d="M0 0 C0.81898622 3.57350041 1.11811958 6.85659479 1.09765625 10.51953125 C1.09282227 12.0519043 1.09282227 12.0519043 1.08789062 13.61523438 C1.07951172 14.67033203 1.07113281 15.72542969 1.0625 16.8125 C1.05798828 17.88693359 1.05347656 18.96136719 1.04882812 20.06835938 C1.03707729 22.71229683 1.02064787 25.35611952 1 28 C0.67 28 0.34 28 0 28 C-0.33 20.41 -0.66 12.82 -1 5 C-2.32 5 -3.64 5 -5 5 C-2.74193548 0 -2.74193548 0 0 0 Z " fill="#C8B498" transform="translate(132,43)"/>
<path d="M0 0 C1.22589844 0.01353516 1.22589844 0.01353516 2.4765625 0.02734375 C3.41628906 0.04474609 3.41628906 0.04474609 4.375 0.0625 C4.375 2.0425 4.375 4.0225 4.375 6.0625 C3.776875 5.753125 3.17875 5.44375 2.5625 5.125 C0.28543228 3.96040296 0.28543228 3.96040296 -2.625 3.0625 C-2.955 3.7225 -3.285 4.3825 -3.625 5.0625 C-3.625 4.0725 -3.625 3.0825 -3.625 2.0625 C-4.285 2.0625 -4.945 2.0625 -5.625 2.0625 C-5.295 4.3725 -4.965 6.6825 -4.625 9.0625 C-5.285 8.7325 -5.945 8.4025 -6.625 8.0625 C-6.625 5.7525 -6.625 3.4425 -6.625 1.0625 C-4.21954362 -0.14022819 -2.67503047 -0.03821472 0 0 Z " fill="#9194AF" transform="translate(100.625,145.9375)"/>
<path d="M0 0 C1.11375 0.7115625 1.11375 0.7115625 2.25 1.4375 C4.78108625 3.0927841 4.78108625 3.0927841 7.0625 3.3125 C10.26596455 4.44921323 11.32417036 7.18700025 13 10 C9.08557587 9.72690064 7.2973899 9.25007787 4.25 6.6875 C2.38901664 4.46465876 1.08424919 2.66133892 0 0 Z " fill="#CEBFA8" transform="translate(77,104)"/>
<path d="M0 0 C0 1.32 0 2.64 0 4 C-2.375 5.625 -2.375 5.625 -5 7 C-5.66 7.66 -6.32 8.32 -7 9 C-7 7.68 -7 6.36 -7 5 C-7.99 4.67 -8.98 4.34 -10 4 C-4.5 0 -4.5 0 0 0 Z " fill="#D9CFC1" transform="translate(128,68)"/>
<path d="M0 0 C1.32 0.33 2.64 0.66 4 1 C4.06058594 1.91523438 4.12117187 2.83046875 4.18359375 3.7734375 C4.26738281 4.96195313 4.35117188 6.15046875 4.4375 7.375 C4.51871094 8.55835938 4.59992188 9.74171875 4.68359375 10.9609375 C4.81084936 13.91518901 4.81084936 13.91518901 6 16 C5.01 16 4.02 16 3 16 C3 15.01 3 14.02 3 13 C2.34 13 1.68 13 1 13 C0.67 8.71 0.34 4.42 0 0 Z " fill="#111755" transform="translate(134,147)"/>
<path d="M0 0 C1.2065625 0.0309375 1.2065625 0.0309375 2.4375 0.0625 C2.7675 3.0325 3.0975 6.0025 3.4375 9.0625 C5.0875 8.4025 6.7375 7.7425 8.4375 7.0625 C7.7775 8.3825 7.1175 9.7025 6.4375 11.0625 C7.0975 11.3925 7.7575 11.7225 8.4375 12.0625 C6.4375 13.0625 6.4375 13.0625 1.4375 12.0625 C1.4375 8.4325 1.4375 4.8025 1.4375 1.0625 C0.261875 1.7740625 0.261875 1.7740625 -0.9375 2.5 C-2.45198678 3.40148023 -3.9860897 4.27429485 -5.5625 5.0625 C-3.15007962 0.07683121 -3.15007962 0.07683121 0 0 Z " fill="#E5DDD1" transform="translate(120.5625,36.9375)"/>
<path d="M0 0 C0.33 0 0.66 0 1 0 C1 6.93 1 13.86 1 21 C1.99 21.33 2.98 21.66 4 22 C2.0625 22.5625 2.0625 22.5625 0 23 C-1 22 -1 22 -1.1328125 19.12109375 C-1.1191006 12.65593151 -1.02218842 6.3886776 0 0 Z " fill="#B3B6C9" transform="translate(50,141)"/>
<path d="M0 0 C0.66 0 1.32 0 2 0 C2 1.65 2 3.3 2 5 C2.99 5.33 3.98 5.66 5 6 C-2.42857143 7.28571429 -2.42857143 7.28571429 -6 6 C-6 4.35 -6 2.7 -6 1 C-5.01 1 -4.02 1 -3 1 C-2.67 1.66 -2.34 2.32 -2 3 C-1.01 3.33 -0.02 3.66 1 4 C0.67 2.68 0.34 1.36 0 0 Z " fill="#7B7EA0" transform="translate(100,157)"/>
<path d="M0 0 C2.97 0 5.94 0 9 0 C9 0.66 9 1.32 9 2 C8.34 2 7.68 2 7 2 C7 3.98 7 5.96 7 8 C6.01 8.495 6.01 8.495 5 9 C4.67 7.02 4.34 5.04 4 3 C2.68 2.67 1.36 2.34 0 2 C0 1.34 0 0.68 0 0 Z " fill="#33376E" transform="translate(104,139)"/>
<path d="M0 0 C0.33 0 0.66 0 1 0 C1 1.65 1 3.3 1 5 C-5.27 5 -11.54 5 -18 5 C-14.39821412 2.59880941 -11.49133631 2.56228678 -7.3125 2.375 C-6.61060547 2.33632812 -5.90871094 2.29765625 -5.18554688 2.2578125 C-3.45745345 2.1637666 -1.72876325 2.0808032 0 2 C0 1.34 0 0.68 0 0 Z " fill="#3B4073" transform="translate(35,158)"/>
<path d="M0 0 C0.33 0 0.66 0 1 0 C1 3.63 1 7.26 1 11 C2.65 10.67 4.3 10.34 6 10 C6 11.32 6 12.64 6 14 C5 15 5 15 1.9375 15.0625 C0.968125 15.041875 -0.00125 15.02125 -1 15 C-0.34 14.34 0.32 13.68 1 13 C0.67 12.67 0.34 12.34 0 12 C-0.07244053 9.98035801 -0.08377188 7.95832876 -0.0625 5.9375 C-0.05347656 4.83277344 -0.04445312 3.72804687 -0.03515625 2.58984375 C-0.02355469 1.73519531 -0.01195312 0.88054687 0 0 Z " fill="#A2A6BD" transform="translate(178,149)"/>
<path d="M0 0 C0.33 0 0.66 0 1 0 C1.33 2.97 1.66 5.94 2 9 C4.97 9 7.94 9 11 9 C11.66 10.32 12.32 11.64 13 13 C12.319375 12.649375 11.63875 12.29875 10.9375 11.9375 C7.29770465 10.77586318 4.72135719 11.35591895 1 12 C0 11 0 11 -0.09765625 8.49609375 C-0.08605469 7.48675781 -0.07445312 6.47742188 -0.0625 5.4375 C-0.05347656 4.42558594 -0.04445312 3.41367188 -0.03515625 2.37109375 C-0.02355469 1.58863281 -0.01195312 0.80617187 0 0 Z " fill="#75799C" transform="translate(53,138)"/>
<path d="M0 0 C1.2065625 0.0309375 1.2065625 0.0309375 2.4375 0.0625 C1.86405063 2.92974686 1.5760485 3.9239515 -0.5625 6.0625 C-3.1875 6.1875 -3.1875 6.1875 -5.5625 6.0625 C-3.26136364 0.07954545 -3.26136364 0.07954545 0 0 Z " fill="#D2C4AF" transform="translate(118.5625,105.9375)"/>
<path d="M0 0 C-2.1385485 2.1385485 -3.13275314 2.42655063 -6 3 C-3.03 3.495 -3.03 3.495 0 4 C0 4.33 0 4.66 0 5 C-6.27692308 6.35384615 -6.27692308 6.35384615 -9.9375 4.5625 C-10.618125 4.046875 -11.29875 3.53125 -12 3 C-8.2391768 -0.7608232 -5.0273023 -0.25136512 0 0 Z " fill="#DFD7CB" transform="translate(104,116)"/>
<path d="M0 0 C1 2 1 2 0.4375 5 C0.293125 5.99 0.14875 6.98 0 8 C0.66 8.66 1.32 9.32 2 10 C1.05125 10.309375 0.1025 10.61875 -0.875 10.9375 C-3.86080408 11.87394742 -3.86080408 11.87394742 -6 13 C-4.58707905 8.1725201 -2.57025846 4.2837641 0 0 Z " fill="#E0D7CB" transform="translate(107,40)"/>
<path d="M0 0 C0.33 0 0.66 0 1 0 C1.66 3.96 2.32 7.92 3 12 C5.31 12.66 7.62 13.32 10 14 C8.25 15.125 8.25 15.125 6 16 C3.33024478 15.05773345 2.01384202 14.01384202 0 12 C-1.07552644 7.69789425 -0.92533134 4.31821291 0 0 Z " fill="#999DB7" transform="translate(144,149)"/>
<path d="M0 0 C0.99 0 1.98 0 3 0 C2.67 7.26 2.34 14.52 2 22 C1.67 22 1.34 22 1 22 C1 15.4 1 8.8 1 2 C0.34 1.67 -0.32 1.34 -1 1 C-0.67 0.67 -0.34 0.34 0 0 Z " fill="#1A1F59" transform="translate(165,138)"/>
<path d="M0 0 C0.99 0.33 1.98 0.66 3 1 C2.938125 2.258125 2.87625 3.51625 2.8125 4.8125 C2.76367078 8.16958979 2.76367078 8.16958979 4.5 11 C4.995 11.33 5.49 11.66 6 12 C4.02 11.34 2.04 10.68 0 10 C0 6.7 0 3.4 0 0 Z " fill="#DCD2C5" transform="translate(80,43)"/>
<path d="M0 0 C2.125 0.9375 2.125 0.9375 4 2 C3.34 3.32 2.68 4.64 2 6 C0.68 5.67 -0.64 5.34 -2 5 C-2 3.68 -2 2.36 -2 1 C-1.34 0.67 -0.68 0.34 0 0 Z " fill="#8689A5" transform="translate(87,137)"/>
<path d="M0 0 C1.32 0.66 2.64 1.32 4 2 C4 2.99 4 3.98 4 5 C2.35 5.33 0.7 5.66 -1 6 C-1.625 4.125 -1.625 4.125 -2 2 C-1.34 1.34 -0.68 0.68 0 0 Z " fill="#8588A5" transform="translate(42,137)"/>
<path d="M0 0 C2.3125 0.1875 2.3125 0.1875 4 1 C3.75 2.875 3.75 2.875 3 5 C0.9375 6.25 0.9375 6.25 -1 7 C-1 6.01 -1 5.02 -1 4 C-2.32 4.33 -3.64 4.66 -5 5 C-2.75 2.4375 -2.75 2.4375 0 0 Z M0 2 C-0.33 2.66 -0.66 3.32 -1 4 C-0.01 4 0.98 4 2 4 C2 3.34 2 2.68 2 2 C1.34 2 0.68 2 0 2 Z " fill="#DED7CB" transform="translate(124,60)"/>
<path d="M0 0 C0.33 0.66 0.66 1.32 1 2 C0.34 2 -0.32 2 -1 2 C-1 2.66 -1 3.32 -1 4 C-0.01 4.33 0.98 4.66 2 5 C-0.475 6.485 -0.475 6.485 -3 8 C-3.66 7.34 -4.32 6.68 -5 6 C-2.25 1.125 -2.25 1.125 0 0 Z " fill="#D3C7B4" transform="translate(128,98)"/>
<path d="M0 0 C0.99 1.32 1.98 2.64 3 4 C3.99 2.68 4.98 1.36 6 0 C5.125 5.75 5.125 5.75 4 8 C3.34 8 2.68 8 2 8 C0.23537317 4.91190305 0 3.76687864 0 0 Z " fill="#B3B5C6" transform="translate(114,149)"/>
<path d="M0 0 C2.64 0 5.28 0 8 0 C8 2.97 8 5.94 8 9 C7.67 9 7.34 9 7 9 C7 6.36 7 3.72 7 1 C6.401875 1.33 5.80375 1.66 5.1875 2 C3 3 3 3 0 3 C0 2.01 0 1.02 0 0 Z " fill="#BABCCC" transform="translate(152,146)"/>
<path d="M0 0 C1.32 0 2.64 0 4 0 C4 3.63 4 7.26 4 11 C1.54176828 7.31265242 0.98757384 4.30300029 0 0 Z " fill="#171E5B" transform="translate(143,147)"/>
<path d="M0 0 C1.65 0.33 3.3 0.66 5 1 C5 1.66 5 2.32 5 3 C3.35 3 1.7 3 0 3 C-0.33 3.99 -0.66 4.98 -1 6 C-1.66 5.67 -2.32 5.34 -3 5 C-3 4.34 -3 3.68 -3 3 C-2.34 3 -1.68 3 -1 3 C-0.67 2.01 -0.34 1.02 0 0 Z " fill="#4E527F" transform="translate(77,146)"/>
<path d="M0 0 C1.98 0.66 3.96 1.32 6 2 C4.68 3.32 3.36 4.64 2 6 C1.67 5.34 1.34 4.68 1 4 C-1.02463255 3.34786708 -1.02463255 3.34786708 -3 3 C-2.01 2.01 -1.02 1.02 0 0 Z " fill="#DDD4C7" transform="translate(112,55)"/>
<path d="M0 0 C3.63 0.33 7.26 0.66 11 1 C10.67 1.66 10.34 2.32 10 3 C7.36 3 4.72 3 2 3 C2 2.34 2 1.68 2 1 C1.34 0.67 0.68 0.34 0 0 Z " fill="#717498" transform="translate(52,161)"/>
<path d="M0 0 C2.0625 1.6875 2.0625 1.6875 4 4 C3.75 6.75 3.75 6.75 3 9 C0.23776722 6.23776722 0.42143709 3.79293383 0 0 Z " fill="#161C5D" transform="translate(111,149)"/>
<path d="M0 0 C0.33 0 0.66 0 1 0 C1.03738281 0.75925781 1.07476562 1.51851562 1.11328125 2.30078125 C1.17902344 3.29464844 1.24476563 4.28851563 1.3125 5.3125 C1.37050781 6.29863281 1.42851562 7.28476563 1.48828125 8.30078125 C2.04622813 11.24384457 2.68540132 12.18182999 5 14 C3.35 14 1.7 14 0 14 C0 9.38 0 4.76 0 0 Z " fill="#131A56" transform="translate(176,149)"/>
<path d="M0 0 C2.31 0 4.62 0 7 0 C7 0.66 7 1.32 7 2 C5.37373596 3.38232443 3.7074998 4.71937515 2 6 C2 4.68 2 3.36 2 2 C1.34 2 0.68 2 0 2 C0 1.34 0 0.68 0 0 Z " fill="#444879" transform="translate(121,139)"/>
<path d="M0 0 C0.66 0 1.32 0 2 0 C2.144375 0.78375 2.28875 1.5675 2.4375 2.375 C2.87798925 4.96421018 2.87798925 4.96421018 4 7 C2.35 6.67 0.7 6.34 -1 6 C-1.042721 4.33388095 -1.04063832 2.66617115 -1 1 C-0.67 0.67 -0.34 0.34 0 0 Z " fill="#1F255F" transform="translate(128,156)"/>
<path d="M0 0 C0.66 0 1.32 0 2 0 C2.33 1.65 2.66 3.3 3 5 C3.66 5 4.32 5 5 5 C5 5.66 5 6.32 5 7 C3.68 7 2.36 7 1 7 C0.67 4.69 0.34 2.38 0 0 Z " fill="#1E245E" transform="translate(95,148)"/>
<path d="M0 0 C0.99 0.33 1.98 0.66 3 1 C2.67 2.65 2.34 4.3 2 6 C0.68 5.67 -0.64 5.34 -2 5 C-1.125 1.125 -1.125 1.125 0 0 Z " fill="#C8B499" transform="translate(104,50)"/>
<path d="M0 0 C0 2.31 0 4.62 0 7 C-0.99 7 -1.98 7 -3 7 C-3 5.02 -3 3.04 -3 1 C-1 0 -1 0 0 0 Z " fill="#C6B397" transform="translate(112,38)"/>
<path d="M0 0 C1.32 0.33 2.64 0.66 4 1 C4.33 2.98 4.66 4.96 5 7 C4.01 7.495 4.01 7.495 3 8 C3 6.02 3 4.04 3 2 C1.35 2.66 -0.3 3.32 -2 4 C-1.34 2.68 -0.68 1.36 0 0 Z " fill="#E6DFD4" transform="translate(110,36)"/>
<path d="M0 0 C1.32 0.33 2.64 0.66 4 1 C3.67 2.98 3.34 4.96 3 7 C2.34 7 1.68 7 1 7 C0.67 4.69 0.34 2.38 0 0 Z " fill="#2C3169" transform="translate(134,147)"/>
<path d="M0 0 C1.32 0.66 2.64 1.32 4 2 C1.69 3.65 -0.62 5.3 -3 7 C-3 5.68 -3 4.36 -3 3 C-2.01 2.67 -1.02 2.34 0 2 C0 1.34 0 0.68 0 0 Z " fill="#D7CBBB" transform="translate(112,111)"/>
<path d="M0 0 C1.65 0 3.3 0 5 0 C4.1875 1.9375 4.1875 1.9375 3 4 C2.01 4.33 1.02 4.66 0 5 C0 3.35 0 1.7 0 0 Z " fill="#D2C4B2" transform="translate(122,49)"/>
</svg>
